<svg xmlns="http://www.w3.org/2000/svg" width="320" height="200" viewBox="0 0 320 200"><rect x="0" y="0" width="320" height="200" fill="#ffffff" /><rect x="24" y="30" width="149.60000000000002" height="10" fill="#1a1a1a" rx="3"/><rect x="24" y="48" width="272" height="2" fill="#1a1a1a" /><rect x="24" y="62" width="128" height="6" fill="#c9c9c9" rx="3"/><rect x="24" y="74" width="128" height="6" fill="#c9c9c9" rx="3"/><rect x="24" y="86" width="128" height="6" fill="#c9c9c9" rx="3"/><rect x="24" y="98" width="128" height="6" fill="#c9c9c9" rx="3"/><rect x="24" y="110" width="128" height="6" fill="#c9c9c9" rx="3"/><rect x="24" y="122" width="76.8" height="6" fill="#c9c9c9" rx="3"/><rect x="168" y="62" width="128" height="6" fill="#c9c9c9" rx="3"/><rect x="168" y="74" width="128" height="6" fill="#c9c9c9" rx="3"/><rect x="168" y="86" width="128" height="6" fill="#c9c9c9" rx="3"/><rect x="168" y="98" width="128" height="6" fill="#c9c9c9" rx="3"/><rect x="168" y="110" width="128" height="6" fill="#c9c9c9" rx="3"/><rect x="168" y="122" width="76.8" height="6" fill="#c9c9c9" rx="3"/></svg>
